<svg width="128" height="80" viewBox="0 0 128 80" fill="none" xmlns="http://www.w3.org/2000/svg">
<g clip-path="url(#clip0_0_1)">
<path d="M18.544 63V23.4H27.328V30.96H27.472C27.904 28.368 29.032 26.352 30.856 24.912C32.68 23.424 35.056 22.68 37.984 22.68C41.872 22.68 44.968 23.976 47.272 26.568C49.624 29.16 50.8 32.64 50.8 37.008V63H41.8V37.944C41.8 35.544 41.152 33.696 39.856 32.4C38.608 31.104 36.904 30.456 34.744 30.456C32.488 30.456 30.712 31.128 29.416 32.472C28.168 33.816 27.544 35.736 27.544 38.232V63H18.544ZM77.7719 63C74.0759 63 71.1239 61.944 68.9159 59.832C66.7559 57.672 65.6759 54.768 65.6759 51.12V31.536H54.9479V23.4H65.6759V12.24H74.7479V23.4H89.9399V31.536H74.7479V50.904C74.7479 52.056 75.0599 53.016 75.6839 53.784C76.3559 54.504 77.2679 54.864 78.4199 54.864H89.2199V63H77.7719Z" fill="white"/>
<path d="M95.376 37.84V31.144L107.544 22.576C108.504 21.952 109.248 21.136 109.776 20.128C110.352 19.072 110.64 18.016 110.64 16.96C110.64 15.376 110.184 14.128 109.272 13.216C108.36 12.304 107.136 11.848 105.6 11.848C104.112 11.848 102.888 12.304 101.928 13.216C101.016 14.128 100.56 15.376 100.56 16.96H94.512C94.56 13.792 95.592 11.272 97.608 9.4C99.624 7.48 102.288 6.52 105.6 6.52C109.008 6.52 111.72 7.456 113.736 9.328C115.752 11.2 116.76 13.72 116.76 16.888C116.76 18.664 116.208 20.44 115.104 22.216C114 23.992 112.512 25.504 110.64 26.752L102.216 32.44H117.336V37.84H95.376Z" fill="white"/>
</g>
<defs>
<clipPath id="clip0_0_1">
<rect width="128" height="80" fill="white"/>
</clipPath>
</defs>
</svg>
